<svg xmlns="http://www.w3.org/2000/svg" width="37" height="36">
  <path fill="#60a99e" d="M27.746 25.924c0 1.304-.986 2.4-2.312 2.699v.307a.717.717 0 0 1-.723.711.717.717 0 0 1-.722-.711v-.307c-1.326-.298-2.313-1.395-2.313-2.699 0-.392.324-.71.723-.71.399 0 .723.318.723.71 0 .748.713 1.356 1.59 1.356.876 0 1.59-.608 1.59-1.356 0-.746-.714-1.354-1.59-1.354-1.674 0-3.036-1.246-3.036-2.777 0-1.304.987-2.4 2.313-2.698v-.37c0-.393.323-.712.722-.712.4 0 .723.32.723.712v.37c1.326.297 2.312 1.394 2.312 2.698a.717.717 0 0 1-.722.71.717.717 0 0 1-.723-.71c0-.748-.713-1.355-1.59-1.355-.876 0-1.59.607-1.59 1.355 0 .746.714 1.354 1.59 1.354 1.674 0 3.035 1.246 3.035 2.777zm6.363-2.02a9.156 9.156 0 0 1-1.096 4.34.724.724 0 0 1-.977.293.707.707 0 0 1-.299-.962 7.742 7.742 0 0 0 .927-3.67c0-2.991-1.77-5.762-4.51-7.059a.706.706 0 0 1-.338-.949.727.727 0 0 1 .964-.333 9.37 9.37 0 0 1 3.846 3.351 9.113 9.113 0 0 1 1.483 4.99zm-7.542-8.534a.717.717 0 0 1-.723.708h-.045a.717.717 0 0 1-.723-.711c0-.393.324-.711.723-.711h.048a.717.717 0 0 1 .72.714zm-4.953 16.541a.723.723 0 0 1-.965.334 9.371 9.371 0 0 1-3.846-3.352 9.115 9.115 0 0 1-1.483-4.989c0-1.512.38-3.012 1.096-4.339a.729.729 0 0 1 .978-.294.706.706 0 0 1 .298.963 7.744 7.744 0 0 0-.926 3.67c0 2.99 1.77 5.761 4.51 7.058.36.17.51.595.338.95zm2.74.53a.718.718 0 0 1-.723.713h-.049a.717.717 0 0 1-.719-.716.717.717 0 0 1 .726-.708h.042c.399 0 .722.319.722.712zM37 23.905C37 30.574 31.489 36 24.715 36c-3.537 0-6.729-1.48-8.972-3.841H7.226c-1.832 0-3.324-1.469-3.324-3.274a3.25 3.25 0 0 1 1.259-2.56 3.25 3.25 0 0 1-1.259-2.562 3.25 3.25 0 0 1 1.259-2.561 3.25 3.25 0 0 1-1.259-2.562 3.25 3.25 0 0 1 1.259-2.561 3.248 3.248 0 0 1-1.259-2.56c0-1.805 1.492-3.274 3.324-3.274h1.885a3.218 3.218 0 0 1 0-3.7H3.324C1.491 6.544 0 5.076 0 3.272S1.49 0 3.324 0H21.03c1.833 0 3.324 1.469 3.324 3.273 0 .686-.216 1.323-.584 1.85h5.787c1.833 0 3.325 1.468 3.325 3.272 0 1.805-1.492 3.274-3.325 3.274h-1.88c.124.18.232.374.32.58C33.182 13.665 37 18.354 37 23.904zM11.85 6.544c-1.036 0-1.878.83-1.878 1.85s.842 1.85 1.878 1.85h17.705c1.036 0 1.88-.83 1.88-1.85s-.844-1.85-1.88-1.85zm9.178-1.422c1.036 0 1.879-.83 1.879-1.85s-.843-1.85-1.879-1.85H3.324c-1.036 0-1.879.83-1.879 1.85s.843 1.85 1.88 1.85zm-15.68 8.395c0 1.02.842 1.85 1.878 1.85h8.795a12.346 12.346 0 0 1 9.73-3.514 1.902 1.902 0 0 0-.82-.185H7.226c-1.036 0-1.878.829-1.878 1.85zm0 5.122c0 1.02.842 1.85 1.878 1.85h5.703a11.992 11.992 0 0 1 1.857-3.7h-7.56c-1.036 0-1.878.831-1.878 1.85zm0 5.123c0 1.02.842 1.85 1.878 1.85h5.327a11.954 11.954 0 0 1 .044-3.7h-5.37c-1.037 0-1.88.83-1.88 1.85zm9.234 6.972a11.96 11.96 0 0 1-1.734-3.7H7.226c-1.036 0-1.878.83-1.878 1.85s.842 1.85 1.878 1.85zm20.973-6.83c0-5.884-4.863-10.672-10.84-10.672-5.977 0-10.84 4.788-10.84 10.672 0 5.885 4.863 10.672 10.84 10.672 5.977 0 10.84-4.787 10.84-10.672z"/>
</svg>
