<svg aria-hidden="true" style="position:absolute;width:0;height:0" xmlns="http://www.w3.org/2000/svg" overflow="hidden"><defs><symbol id="icoarrow" viewBox="0 0 32 32"><path d="M22.708 7l-1.416 1.412 6.28 6.294H0v2h27.572L21.292 23l1.416 1.412 8.688-8.706z"/></symbol><symbol id="icoearthglobe" viewBox="0 0 32 32"><path d="M30.723 9.772c-1.687-3.933-4.554-6.794-8.52-8.486C20.221.441 18.161.009 15.992.009s-4.231.428-6.211 1.277C5.848 2.973 2.951 5.832 1.26 9.772.413 11.746 0 13.814 0 15.983s.413 4.255 1.26 6.229c1.69 3.94 4.587 6.816 8.521 8.503 1.98.85 4.042 1.277 6.211 1.277s4.229-.432 6.211-1.277c3.966-1.692 6.833-4.57 8.52-8.503.85-1.98 1.277-4.059 1.277-6.229s-.428-4.23-1.277-6.211zM10.672 2.983C9.29 4.732 8.275 6.954 7.628 9.649H3.447c1.54-2.992 4.129-5.389 7.226-6.666zm-8.73 12.999c0-1.522.245-2.992.717-4.409h4.584a29.169 29.169 0 000 8.783H2.624a14.276 14.276 0 01-.682-4.374zm1.505 6.299h4.182c.648 2.747 1.662 5.004 3.044 6.736-3.149-1.312-5.739-3.709-7.226-6.736zm11.564 7.611c-1.137-.332-2.204-1.172-3.167-2.537s-1.697-3.062-2.204-5.074h5.371v7.611zm0-9.535H9.202c-.228-1.557-.35-3.01-.35-4.374 0-1.47.122-2.939.385-4.409h5.773v8.783zm0-10.708H9.64c.542-1.995 1.281-3.671 2.24-5.021.966-1.362 1.994-2.204 3.132-2.519V9.65zm13.542 0h-4.182c-.647-2.695-1.662-4.917-3.044-6.666 3.097 1.277 5.686 3.674 7.226 6.666zM16.989 2.108c1.137.315 2.165 1.157 3.132 2.519.958 1.35 1.697 3.027 2.239 5.021h-5.371V2.107zm0 9.466h5.773c.263 1.47.385 2.939.385 4.409 0 1.365-.122 2.817-.35 4.374h-5.809v-8.783zm0 18.318v-7.611h5.371c-.525 2.012-1.269 3.702-2.222 5.074-.955 1.375-1.994 2.222-3.149 2.537zm4.339-.875c1.382-1.732 2.397-3.989 3.044-6.736h4.182c-1.487 3.027-4.077 5.424-7.226 6.736zm8.048-8.66h-4.619a29.04 29.04 0 000-8.783h4.584a13.84 13.84 0 01.717 4.409c0 1.487-.227 2.957-.682 4.374z"/></symbol><symbol id="icoeditdocument" viewBox="0 0 32 32"><path d="M2 28V4c0-1.103.898-2 2-2h20c1.104 0 2 .897 2 2v11.758l2-2V4a4 4 0 00-4-4H4a4 4 0 00-4 4v24a4 4 0 004 4h11v-2H4c-1.101 0-2-.896-2-2zM22 6H6v2h16V6zm0 4H6v2h16v-2zm0 4H6v2h16v-2zM6 20h8v-2H6v2zm25.414-2L30 16.586c-.391-.391-.902-.586-1.414-.586s-1.023.195-1.414.586l-8.586 8.586c-.391.39-1.586 1.901-1.586 2.413L16 32l4.414-1s2.023-1.195 2.414-1.586l8.586-8.586a2 2 0 000-2.828zm-9.291 10.705c-.113.108-.505.372-.983.677l-2.591-2.591c.266-.364.561-.73.744-.912l6.465-6.465 2.828 2.828-6.463 6.463z"/></symbol><symbol id="icofacebook" viewBox="0 0 32 32"><path fill="var(--color1, #3b5998)" d="M32 16c0 8.837-7.163 16-16 16S0 24.837 0 16 7.163 0 16 0s16 7.163 16 16z"/><path fill="var(--color2, #fff)" d="M20.022 16.626h-2.855v10.459h-4.326V16.626h-2.057V12.95h2.057v-2.379c0-1.701.808-4.365 4.364-4.365l3.204.013v3.568h-2.325c-.381 0-.918.191-.918 1.002v2.163h3.233l-.378 3.672z"/></symbol><symbol id="icofour-black" viewBox="0 0 32 32"><path d="M9.143 18.286H4.572a4.571 4.571 0 00-4.571 4.571v4.571a4.571 4.571 0 004.571 4.571h4.571a4.571 4.571 0 004.571-4.571v-4.571a4.571 4.571 0 00-4.571-4.571zM9.143 0H4.572A4.571 4.571 0 00.001 4.571v4.571a4.571 4.571 0 004.571 4.571h4.571a4.571 4.571 0 004.571-4.571V4.571A4.571 4.571 0 009.143 0zm18.286 18.286h-4.571a4.571 4.571 0 00-4.571 4.571v4.571a4.571 4.571 0 004.571 4.571h4.571A4.571 4.571 0 0032 27.427v-4.571a4.571 4.571 0 00-4.571-4.571zm0-18.286h-4.571a4.571 4.571 0 00-4.571 4.571v4.571a4.571 4.571 0 004.571 4.571h4.571A4.571 4.571 0 0032 9.142V4.571A4.571 4.571 0 0027.429 0z"/></symbol><symbol id="icogps" viewBox="0 0 32 32"><path d="M16 10.182c-3.2 0-5.818 2.618-5.818 5.818S12.8 21.818 16 21.818c3.2 0 5.818-2.618 5.818-5.818S19.2 10.182 16 10.182zm12.945 4.363c-.727-6.109-5.527-10.909-11.491-11.491V-.001h-2.909v3.055A12.728 12.728 0 003.054 14.545H-.001v2.909h3.055c.727 6.109 5.527 10.909 11.491 11.491V32h2.909v-3.055c6.109-.727 10.909-5.527 11.491-11.491H32v-2.909h-3.055zM16 26.182c-5.673 0-10.182-4.509-10.182-10.182S10.327 5.818 16 5.818 26.182 10.327 26.182 16 21.673 26.182 16 26.182z"/></symbol><symbol id="icohandshake" viewBox="0 0 32 32"><path d="M23.637 10.51c-.035-.07-.083-.134-.142-.189s-.127-.094-.197-.119l-3.682-1.323a2.338 2.338 0 00-1.631.016l-2.793 1.066a5.915 5.915 0 00-.584.26c-.064.033-.127.069-.19.105a5.133 5.133 0 00-2.87-.604l-1.879.161c-.082.007-.164.032-.241.078s-.141.107-.191.178l-4.232 6.024a.68.68 0 00.071.866l1.841 1.824a1.486 1.486 0 00.188 1.699c.264.301.628.48 1.028.507l.065.002a1.5 1.5 0 00.397 1.534c.255.242.582.382.93.405a1.501 1.501 0 00.355 1.65c.279.265.644.41 1.029.41.401 0 .774-.157 1.057-.439a1.498 1.498 0 001.999 1.174c.265.177.581.274.917.26.413-.017.784-.2 1.061-.485l-1.012-1.01c.002-.023.007-.046.008-.07a1.5 1.5 0 00-.073-.569l2.072 2.067c.261.106.546.16.842.148a2.084 2.084 0 001.495-.737l.207-.241a.346.346 0 00.047-.076l-3.19-3.181c-.082-.081-.089-.217-.016-.302s.2-.088.281-.006l3.794 3.783c.207.073.428.108.658.098a1.83 1.83 0 001.315-.649l.501-.58a.746.746 0 00.177-.51l-3.329-3.319c-.081-.082-.089-.217-.016-.302s.2-.088.281-.006l3.345 3.335c.137.037.281.055.43.049a1.5 1.5 0 001.077-.531l.135-.156c.269-.312.428-.734.412-1.194s-.203-.867-.494-1.157l-.667-.666 2.414-2.18c.103-.092.177-.221.204-.373s.003-.301-.06-.428l-3.14-6.295zM8.173 20.411c-.226-.015-.433-.117-.583-.288s-.224-.389-.209-.616a.851.851 0 011.696.112.852.852 0 01-.904.792zm1.447 1.944a.847.847 0 01-.584-.232.853.853 0 01-.042-1.192l.507-.535.084-.089a.846.846 0 011.201-.033.848.848 0 01.034 1.201l-.236.25-.16.169-.027.029-.106.111-.049.052-.008.009a.84.84 0 01-.612.26zm1.897 1.796a.846.846 0 01-1.196.027.852.852 0 01-.043-1.19l.423-.447.164-.173.413-.437a.057.057 0 00.011-.011h.001l.044-.047a.848.848 0 011.466.561.843.843 0 01-.233.608l-1.05 1.11zm2.772.296a.851.851 0 11-.85-.905l.057.002a.852.852 0 01.793.904zm9.485-5.104l-6.613-6.594.075-.188c.039-.098.034-.214-.023-.312s-.151-.154-.251-.159l-1.028-.061-.041.636c-.001.013-.107 1.461-.845 2.768-.757 1.342-1.759 1.805-1.912 1.834-.171.033-.35.065-.499.065a.579.579 0 01-.248-.045l-.251-.116a.442.442 0 01-.228-.253.488.488 0 010-.341l2.515-5.52.428-.282 3.333-1.271c.199-.076.407-.115.618-.117h.018c.205 0 .408.036.603.106l3.682 1.323 3.14 6.295-2.472 2.232zm3.578-12.854l-2.485 1.239a1.563 1.563 0 00-.701 2.096l3.254 6.524c.178.357.493.648.903.784.409.137.834.095 1.192-.083L32 15.809l-4.648-9.32zm2.157 9.324a.6.6 0 110-1.198.6.6 0 010 1.198zM8.9 8.47a1.559 1.559 0 00-.641-1.01L5.986 5.864l-5.987 8.522 2.272 1.596a1.558 1.558 0 002.176-.38l4.191-5.966c.23-.327.335-.742.261-1.167zm-5.756 5.789a.598.598 0 11-.503-.681.6.6 0 01.503.682z"/></symbol><symbol id="icolightbulb" viewBox="0 0 32 32"><path d="M20.129 24.461h-3.523v-5.127a2.546 2.546 0 001.793-2.414 2.521 2.521 0 00-5.042 0c0 1.14.785 2.104 1.8 2.414v5.127h-3.541c-.398 0-.72.291-.72.689s.322.689.72.689h8.514c.398 0 .72-.291.72-.689s-.322-.689-.72-.689zm-5.336-7.541c0-.596.485-1.081 1.08-1.081s1.08.486 1.08 1.081c0 .596-.485 1.081-1.08 1.081s-1.08-.486-1.08-1.081zm4.604 10.513h-7.05a.725.725 0 000 1.45h7.05a.725.725 0 000-1.45zm-.394 3.117h-6.262c-.398 0-.72.327-.72.725s.322.725.72.725h6.262c.398 0 .72-.327.72-.725s-.322-.725-.72-.725z"/><path d="M15.872 6.564c-4.876 0-8.842 3.966-8.842 8.841 0 3.598 2.163 6.695 5.255 8.074 1.081.51 1.85-.709.845-1.204-2.727-1.092-4.661-3.758-4.661-6.87 0-4.08 3.32-7.402 7.402-7.402 4.08 0 7.401 3.322 7.401 7.402 0 3.102-1.921 5.761-4.634 6.86-.98.393-.492 1.779.83 1.209 3.085-1.381 5.243-4.474 5.243-8.069.003-4.875-3.964-8.841-8.839-8.841zm-.063-1.407c.423 0 .797-.343.797-.766V.767c0-.423-.373-.767-.797-.767-.423 0-.797.344-.797.767v3.622c0 .423.373.768.797.768zM4.726 15.038H1.102c-.423 0-.767.338-.767.761s.344.761.767.761h3.624a.76.76 0 100-1.522zM7.33 8.026a.768.768 0 001.085-1.085L5.853 4.379a.768.768 0 00-1.085 1.085L7.33 8.026zm23.568 7.012h-3.624a.761.761 0 100 1.522h3.624c.423 0 .767-.338.767-.761s-.344-.761-.767-.761zm-6.23-7.012l2.562-2.562a.768.768 0 00-1.085-1.085l-2.562 2.562a.768.768 0 001.085 1.085z"/></symbol><symbol id="icopencilcircle" viewBox="0 0 32 32"><path d="M20 17.718a4.812 4.812 0 01-4-.273 4.812 4.812 0 01-4 .273v9.6c1.251.442 2.597.683 4 .683s2.749-.241 4-.683v-9.6zm-.269-1.332L16 9.99l-3.731 6.396a3.473 3.473 0 003.361-.274.668.668 0 01.74 0 3.474 3.474 0 003.361.274zm1.602.294v10.073A12.002 12.002 0 0028 16c0-6.627-5.373-12-12-12S4 9.373 4 16a12 12 0 006.667 10.753V16.68a.67.67 0 01.094-.355l4.663-7.995a.667.667 0 011.152 0l4.663 7.995.024.043c.05.1.073.207.07.312zM16 29.333c-7.364 0-13.333-5.97-13.333-13.333S8.637 2.667 16 2.667c7.364 0 13.333 5.97 13.333 13.333S23.363 29.333 16 29.333z"/></symbol><symbol id="icordf-resource" viewBox="0 0 32 32"><path d="M26.997 20.09v-8.18A5.997 5.997 0 0026 0a5.999 5.999 0 00-5.738 7.75l-9.424 4.711A5.986 5.986 0 006 10a6 6 0 000 12c1.99 0 3.748-.973 4.839-2.464l9.423 4.712A6 6 0 1032 26a5.996 5.996 0 00-5.003-5.91zm-1.998.001a5.996 5.996 0 00-3.838 2.372l-9.422-4.712a5.993 5.993 0 00-.001-3.504l9.422-4.71a5.986 5.986 0 003.839 2.374v8.18z"/></symbol><symbol id="icotelegram" viewBox="0 0 32 32"><path fill="var(--color3, #039be5)" d="M32 16c0 8.837-7.163 16-16 16S0 24.837 0 16 7.163 0 16 0s16 7.163 16 16z"/><path fill="var(--color2, #fff)" d="M7.321 15.653l15.427-5.948c.716-.259 1.341.175 1.109 1.257l.001-.001-2.627 12.375c-.195.877-.716 1.091-1.445.677l-4-2.948-1.929 1.859c-.213.213-.393.393-.807.393l.284-4.071 7.413-6.697c.323-.284-.072-.444-.497-.161l-9.161 5.768-3.949-1.232c-.857-.272-.876-.857.181-1.271z"/></symbol><symbol id="icothefreeforty_targe" viewBox="0 0 32 32"><path d="M24.533 13.547c-.427.107-.64.64-.427 1.067.533 1.28.747 2.667.747 4.053 0 6.4-5.227 11.52-11.52 11.52s-11.52-5.12-11.52-11.52 5.12-11.52 11.52-11.52c1.173 0 2.453.213 3.627.533.427.107.853-.107.96-.533s-.107-.853-.533-.96a12.886 12.886 0 00-4.053-.64c-7.253 0-13.12 5.867-13.12 13.12s5.867 13.12 13.12 13.12 13.12-5.867 13.12-13.12c0-1.6-.32-3.2-.853-4.693-.107-.32-.64-.533-1.067-.427zM13.333 16c.427 0 .853-.32.853-.853s-.32-.853-.853-.853c-2.347 0-4.267 1.92-4.267 4.267s1.92 4.267 4.267 4.267 4.267-1.92 4.267-4.267c0-.427-.32-.853-.853-.853s-.747.533-.747.96c0 1.493-1.173 2.667-2.667 2.667s-2.667-1.173-2.667-2.667a2.641 2.641 0 012.667-2.667zm3.947-4.16c.213-.427 0-.853-.427-1.067-1.067-.533-2.347-.747-3.52-.747-4.8 0-8.747 3.84-8.747 8.64s3.947 8.747 8.747 8.747 8.747-3.947 8.747-8.747c0-1.28-.213-2.453-.747-3.52-.213-.427-.64-.64-1.067-.427s-.533.64-.427 1.067c.427.96.64 1.92.64 2.88a7.147 7.147 0 11-7.147-7.147c1.067 0 2.027.213 2.88.64.427.213.853 0 1.067-.32zm14.507-5.333c-.107-.32-.32-.533-.64-.533l-4.373-.747-.747-4.373c0-.32-.213-.533-.533-.64s-.64 0-.853.213l-5.227 5.227c-.213.213-.32.427-.213.747l.853 4.48-6.72 6.72h-.107c-.64 0-1.173.533-1.173 1.173s.533 1.173 1.173 1.173 1.173-.533 1.173-1.173l6.827-6.827 4.373.853h.107a.816.816 0 00.533-.213l5.227-5.227c.32-.213.427-.533.32-.853zM20.907 6.4l3.84-3.84.533 2.987-3.733 3.733-.64-2.88zm4.693 4.693l-2.88-.533 3.733-3.733 2.88.533-3.733 3.733z"/></symbol><symbol id="icotwo-fingers-swipe-up-gesture-stroke-symbol-of-a-hand_icon-iconscom_57947" viewBox="0 0 32 32"><path d="M26.354 12.571a2.81 2.81 0 00-1.714.571 2.83 2.83 0 00-2.857-2.857 2.81 2.81 0 00-1.714.571v-8a2.83 2.83 0 00-2.857-2.857c-1.257 0-2.286.8-2.629 1.829-.457-.457-1.143-.686-1.943-.686a2.83 2.83 0 00-2.857 2.857V14.17c-2.286-2.057-4.8-3.657-6.4-2.057-2.286 2.286 2.514 6.743 6.171 13.486 2.629 4.686 6.286 6.4 9.943 6.4a9.706 9.706 0 009.714-9.714v-6.857a2.83 2.83 0 00-2.857-2.857zm1.714 5.372v4.343c0 4.686-3.886 8.571-8.571 8.571h-.571V20.571l3.657 3.657.914-.914-5.143-5.029-5.143 5.143.914.914 3.657-3.657v10.171c-3.314-.571-5.371-2.629-7.2-5.6-4.343-7.657-7.543-11.086-6.4-12.343 1.257-1.257 4.343 1.486 6.743 4V3.999c0-.914.8-1.714 1.714-1.714s1.714.8 1.714 1.714v12h1.143V2.856c0-.914.8-1.714 1.714-1.714s1.714.8 1.714 1.714v12h1.143v-1.714c0-.914.8-1.714 1.714-1.714s1.714.8 1.714 1.714v2.857h1.143v-.571c0-.914.8-1.714 1.714-1.714s1.714.8 1.714 1.714v2.514z"/></symbol><symbol id="icoyoutube" viewBox="0 0 32 32"><path fill="var(--color4, #d42428)" d="M32 16c0 8.837-7.163 16-16 16S0 24.837 0 16 7.163 0 16 0s16 7.163 16 16z"/><path fill="var(--color5, #cc202d)" d="M27.313 4.685c6.248 6.249 6.249 16.38 0 22.629s-16.38 6.249-22.629 0L27.313 4.685z"/><path fill="var(--color6, #ba202e)" d="M31.678 19.205l-7.919-7.919-9.34 1.063-5.649 8.746 10.556 10.556a16.02 16.02 0 0012.352-12.447z"/><path fill="var(--color2, #fff)" d="M24.373 12.912a2.428 2.428 0 00-2.427-2.428H10.559a2.428 2.428 0 00-2.427 2.428v6.512a2.428 2.428 0 002.427 2.428h11.387a2.427 2.427 0 002.427-2.428v-6.512zm-9.745 6.004V12.8l4.638 3.058-4.638 3.058z"/></symbol></defs></svg>