<svg aria-hidden="true" style="position: absolute; width: 0; height: 0; overflow: hidden;" version="1.1" xmlns="http://www.w3.org/2000/svg" xmlns:xlink="http://www.w3.org/1999/xlink">
<defs>
<symbol id=".icon1" viewBox="0 0 32 32">
<title>1</title>
<path fill="#fcae26" style="fill: var(--color1, #fcae26)" d="M21.548 5.389c-0.204-0.21-0.49-0.341-0.806-0.341s-0.602 0.13-0.806 0.34l-0 0c-0.202 0.197-0.327 0.471-0.327 0.775s0.125 0.578 0.327 0.774l0 0 8.177 7.949h-26.984c-0.006-0-0.013-0-0.020-0-0.607 0-1.101 0.489-1.108 1.094v0.001c0 0.001 0 0.002 0 0.003 0 0.621 0.504 1.125 1.125 1.125 0.001 0 0.002 0 0.004 0h26.984l-8.177 7.933c-0.202 0.2-0.327 0.477-0.327 0.783s0.125 0.583 0.327 0.783l0 0c0.208 0.203 0.492 0.328 0.806 0.328s0.598-0.125 0.806-0.328l10.105-9.836c0.208-0.193 0.338-0.469 0.338-0.775s-0.13-0.581-0.338-0.774l-0.001-0.001z"></path>
</symbol>
<symbol id=".icon2" viewBox="0 0 32 32">
<title>2</title>
<path fill="#fcae26" style="fill: var(--color1, #fcae26)" d="M21.548 5.389c-0.204-0.21-0.49-0.341-0.806-0.341s-0.602 0.13-0.806 0.34l-0 0c-0.202 0.197-0.327 0.471-0.327 0.775s0.125 0.578 0.327 0.774l0 0 8.177 7.949h-26.984c-0.006-0-0.013-0-0.020-0-0.607 0-1.101 0.489-1.108 1.094v0.001c0 0.001 0 0.002 0 0.003 0 0.621 0.504 1.125 1.125 1.125 0.001 0 0.002 0 0.004 0h26.984l-8.177 7.933c-0.202 0.2-0.327 0.477-0.327 0.783s0.125 0.583 0.327 0.783l0 0c0.208 0.203 0.492 0.328 0.806 0.328s0.598-0.125 0.806-0.328l10.105-9.836c0.208-0.193 0.338-0.469 0.338-0.775s-0.13-0.581-0.338-0.774l-0.001-0.001z"></path>
</symbol>
<symbol id=".icon3" viewBox="0 0 32 32">
<title>3</title>
<path fill="#fcae26" style="fill: var(--color1, #fcae26)" d="M21.548 5.389c-0.204-0.21-0.49-0.341-0.806-0.341s-0.602 0.13-0.806 0.34l-0 0c-0.202 0.197-0.327 0.471-0.327 0.775s0.125 0.578 0.327 0.774l0 0 8.177 7.949h-26.984c-0.006-0-0.013-0-0.020-0-0.607 0-1.101 0.489-1.108 1.094v0.001c0 0.001 0 0.002 0 0.003 0 0.621 0.504 1.125 1.125 1.125 0.001 0 0.002 0 0.004 0h26.984l-8.177 7.933c-0.202 0.2-0.327 0.477-0.327 0.783s0.125 0.583 0.327 0.783l0 0c0.208 0.203 0.492 0.328 0.806 0.328s0.598-0.125 0.806-0.328l10.105-9.836c0.208-0.193 0.338-0.469 0.338-0.775s-0.13-0.581-0.338-0.774l-0.001-0.001z"></path>
</symbol>
<symbol id=".icon4" viewBox="0 0 32 32">
<title>4</title>
<path fill="#fcae26" style="fill: var(--color1, #fcae26)" d="M21.548 5.389c-0.204-0.21-0.49-0.341-0.806-0.341s-0.602 0.13-0.806 0.34l-0 0c-0.202 0.197-0.327 0.471-0.327 0.775s0.125 0.578 0.327 0.774l0 0 8.177 7.949h-26.984c-0.006-0-0.013-0-0.020-0-0.607 0-1.101 0.489-1.108 1.094v0.001c0 0.001 0 0.002 0 0.003 0 0.621 0.504 1.125 1.125 1.125 0.001 0 0.002 0 0.004 0h26.984l-8.177 7.933c-0.202 0.2-0.327 0.477-0.327 0.783s0.125 0.583 0.327 0.783l0 0c0.208 0.203 0.492 0.328 0.806 0.328s0.598-0.125 0.806-0.328l10.105-9.836c0.208-0.193 0.338-0.469 0.338-0.775s-0.13-0.581-0.338-0.774l-0.001-0.001z"></path>
</symbol>
<symbol id=".icon5" viewBox="0 0 32 32">
<title>5</title>
<path fill="#fcae26" style="fill: var(--color1, #fcae26)" d="M21.548 5.389c-0.204-0.21-0.49-0.341-0.806-0.341s-0.602 0.13-0.806 0.34l-0 0c-0.202 0.197-0.327 0.471-0.327 0.775s0.125 0.578 0.327 0.774l0 0 8.177 7.949h-26.984c-0.006-0-0.013-0-0.020-0-0.607 0-1.101 0.489-1.108 1.094v0.001c0 0.001 0 0.002 0 0.003 0 0.621 0.504 1.125 1.125 1.125 0.001 0 0.002 0 0.004 0h26.984l-8.177 7.933c-0.202 0.2-0.327 0.477-0.327 0.783s0.125 0.583 0.327 0.783l0 0c0.208 0.203 0.492 0.328 0.806 0.328s0.598-0.125 0.806-0.328l10.105-9.836c0.208-0.193 0.338-0.469 0.338-0.775s-0.13-0.581-0.338-0.774l-0.001-0.001z"></path>
</symbol>
<symbol id=".icon6" viewBox="0 0 32 32">
<title>6</title>
<path fill="#fcae26" style="fill: var(--color1, #fcae26)" d="M21.548 5.389c-0.204-0.21-0.49-0.341-0.806-0.341s-0.602 0.13-0.806 0.34l-0 0c-0.202 0.197-0.327 0.471-0.327 0.775s0.125 0.578 0.327 0.774l0 0 8.177 7.949h-26.984c-0.006-0-0.013-0-0.020-0-0.607 0-1.101 0.489-1.108 1.094v0.001c0 0.001 0 0.002 0 0.003 0 0.621 0.504 1.125 1.125 1.125 0.001 0 0.002 0 0.004 0h26.984l-8.177 7.933c-0.202 0.2-0.327 0.477-0.327 0.783s0.125 0.583 0.327 0.783l0 0c0.208 0.203 0.492 0.328 0.806 0.328s0.598-0.125 0.806-0.328l10.105-9.836c0.208-0.193 0.338-0.469 0.338-0.775s-0.13-0.581-0.338-0.774l-0.001-0.001z"></path>
</symbol>
<symbol id=".icon11" viewBox="0 0 32 32">
<title>11</title>
<path fill="#fcae26" style="fill: var(--color1, #fcae26)" d="M21.548 5.389c-0.204-0.21-0.49-0.341-0.806-0.341s-0.602 0.13-0.806 0.34l-0 0c-0.202 0.197-0.327 0.471-0.327 0.775s0.125 0.578 0.327 0.774l0 0 8.177 7.949h-26.984c-0.006-0-0.013-0-0.020-0-0.607 0-1.101 0.489-1.108 1.094v0.001c0 0.001 0 0.002 0 0.003 0 0.621 0.504 1.125 1.125 1.125 0.001 0 0.002 0 0.004 0h26.984l-8.177 7.933c-0.202 0.2-0.327 0.477-0.327 0.783s0.125 0.583 0.327 0.783l0 0c0.208 0.203 0.492 0.328 0.806 0.328s0.598-0.125 0.806-0.328l10.105-9.836c0.208-0.193 0.338-0.469 0.338-0.775s-0.13-0.581-0.338-0.774l-0.001-0.001z"></path>
</symbol>
<symbol id=".icon7" viewBox="0 0 32 32">
<title>7</title>
<path fill="#fcae26" style="fill: var(--color1, #fcae26)" d="M21.548 5.389c-0.204-0.21-0.49-0.341-0.806-0.341s-0.602 0.13-0.806 0.34l-0 0c-0.202 0.197-0.327 0.471-0.327 0.775s0.125 0.578 0.327 0.774l0 0 8.177 7.949h-26.984c-0.006-0-0.013-0-0.020-0-0.607 0-1.101 0.489-1.108 1.094v0.001c0 0.001 0 0.002 0 0.003 0 0.621 0.504 1.125 1.125 1.125 0.001 0 0.002 0 0.004 0h26.984l-8.177 7.933c-0.202 0.2-0.327 0.477-0.327 0.783s0.125 0.583 0.327 0.783l0 0c0.208 0.203 0.492 0.328 0.806 0.328s0.598-0.125 0.806-0.328l10.105-9.836c0.208-0.193 0.338-0.469 0.338-0.775s-0.13-0.581-0.338-0.774l-0.001-0.001z"></path>
</symbol>
<symbol id=".iconarrow__off" viewBox="0 0 32 32">
<title>arrow__off</title>
<path fill="#fcae26" style="fill: var(--color1, #fcae26)" d="M21.548 5.389c-0.204-0.21-0.49-0.341-0.806-0.341s-0.602 0.13-0.806 0.34l-0 0c-0.202 0.197-0.327 0.471-0.327 0.775s0.125 0.578 0.327 0.774l0 0 8.177 7.949h-26.984c-0.006-0-0.013-0-0.020-0-0.607 0-1.101 0.489-1.108 1.094v0.001c0 0.001 0 0.002 0 0.003 0 0.621 0.504 1.125 1.125 1.125 0.001 0 0.002 0 0.004 0h26.984l-8.177 7.933c-0.202 0.2-0.327 0.477-0.327 0.783s0.125 0.583 0.327 0.783l0 0c0.208 0.203 0.492 0.328 0.806 0.328s0.598-0.125 0.806-0.328l10.105-9.836c0.208-0.193 0.338-0.469 0.338-0.775s-0.13-0.581-0.338-0.774l-0.001-0.001z"></path>
</symbol>
<symbol id=".iconarrow__on" viewBox="0 0 32 32">
<title>arrow__on</title>
<path fill="#fcae26" style="fill: var(--color1, #fcae26)" d="M21.548 5.389c-0.204-0.21-0.49-0.341-0.806-0.341s-0.602 0.13-0.806 0.34l-0 0c-0.202 0.197-0.327 0.471-0.327 0.775s0.125 0.578 0.327 0.774l0 0 8.177 7.949h-26.984c-0.006-0-0.013-0-0.020-0-0.607 0-1.101 0.489-1.108 1.094v0.001c0 0.001 0 0.002 0 0.003 0 0.621 0.504 1.125 1.125 1.125 0.001 0 0.002 0 0.004 0h26.984l-8.177 7.933c-0.202 0.2-0.327 0.477-0.327 0.783s0.125 0.583 0.327 0.783l0 0c0.208 0.203 0.492 0.328 0.806 0.328s0.598-0.125 0.806-0.328l10.105-9.836c0.208-0.193 0.338-0.469 0.338-0.775s-0.13-0.581-0.338-0.774l-0.001-0.001z"></path>
</symbol>
<symbol id=".iconfacebook-1" viewBox="0 0 32 32">
<title>facebook-1</title>
<path fill="#fcae26" style="fill: var(--color1, #fcae26)" d="M21.548 5.389c-0.204-0.21-0.49-0.341-0.806-0.341s-0.602 0.13-0.806 0.34l-0 0c-0.202 0.197-0.327 0.471-0.327 0.775s0.125 0.578 0.327 0.774l0 0 8.177 7.949h-26.984c-0.006-0-0.013-0-0.020-0-0.607 0-1.101 0.489-1.108 1.094v0.001c0 0.001 0 0.002 0 0.003 0 0.621 0.504 1.125 1.125 1.125 0.001 0 0.002 0 0.004 0h26.984l-8.177 7.933c-0.202 0.2-0.327 0.477-0.327 0.783s0.125 0.583 0.327 0.783l0 0c0.208 0.203 0.492 0.328 0.806 0.328s0.598-0.125 0.806-0.328l10.105-9.836c0.208-0.193 0.338-0.469 0.338-0.775s-0.13-0.581-0.338-0.774l-0.001-0.001z"></path>
</symbol>
<symbol id=".icontelegram" viewBox="0 0 32 32">
<title>telegram</title>
<path fill="#fcae26" style="fill: var(--color1, #fcae26)" d="M21.548 5.389c-0.204-0.21-0.49-0.341-0.806-0.341s-0.602 0.13-0.806 0.34l-0 0c-0.202 0.197-0.327 0.471-0.327 0.775s0.125 0.578 0.327 0.774l0 0 8.177 7.949h-26.984c-0.006-0-0.013-0-0.020-0-0.607 0-1.101 0.489-1.108 1.094v0.001c0 0.001 0 0.002 0 0.003 0 0.621 0.504 1.125 1.125 1.125 0.001 0 0.002 0 0.004 0h26.984l-8.177 7.933c-0.202 0.2-0.327 0.477-0.327 0.783s0.125 0.583 0.327 0.783l0 0c0.208 0.203 0.492 0.328 0.806 0.328s0.598-0.125 0.806-0.328l10.105-9.836c0.208-0.193 0.338-0.469 0.338-0.775s-0.13-0.581-0.338-0.774l-0.001-0.001z"></path>
</symbol>
<symbol id=".icontitle__goiteens" viewBox="0 0 32 32">
<title>title__goiteens</title>
<path fill="#fcae26" style="fill: var(--color1, #fcae26)" d="M21.548 5.389c-0.204-0.21-0.49-0.341-0.806-0.341s-0.602 0.13-0.806 0.34l-0 0c-0.202 0.197-0.327 0.471-0.327 0.775s0.125 0.578 0.327 0.774l0 0 8.177 7.949h-26.984c-0.006-0-0.013-0-0.020-0-0.607 0-1.101 0.489-1.108 1.094v0.001c0 0.001 0 0.002 0 0.003 0 0.621 0.504 1.125 1.125 1.125 0.001 0 0.002 0 0.004 0h26.984l-8.177 7.933c-0.202 0.2-0.327 0.477-0.327 0.783s0.125 0.583 0.327 0.783l0 0c0.208 0.203 0.492 0.328 0.806 0.328s0.598-0.125 0.806-0.328l10.105-9.836c0.208-0.193 0.338-0.469 0.338-0.775s-0.13-0.581-0.338-0.774l-0.001-0.001z"></path>
</symbol>
<symbol id=".icontitle__structure" viewBox="0 0 32 32">
<title>title__structure</title>
<path fill="#fcae26" style="fill: var(--color1, #fcae26)" d="M21.548 5.389c-0.204-0.21-0.49-0.341-0.806-0.341s-0.602 0.13-0.806 0.34l-0 0c-0.202 0.197-0.327 0.471-0.327 0.775s0.125 0.578 0.327 0.774l0 0 8.177 7.949h-26.984c-0.006-0-0.013-0-0.020-0-0.607 0-1.101 0.489-1.108 1.094v0.001c0 0.001 0 0.002 0 0.003 0 0.621 0.504 1.125 1.125 1.125 0.001 0 0.002 0 0.004 0h26.984l-8.177 7.933c-0.202 0.2-0.327 0.477-0.327 0.783s0.125 0.583 0.327 0.783l0 0c0.208 0.203 0.492 0.328 0.806 0.328s0.598-0.125 0.806-0.328l10.105-9.836c0.208-0.193 0.338-0.469 0.338-0.775s-0.13-0.581-0.338-0.774l-0.001-0.001z"></path>
</symbol>
<symbol id=".icontitle__study" viewBox="0 0 32 32">
<title>title__study</title>
<path fill="#fcae26" style="fill: var(--color1, #fcae26)" d="M21.548 5.389c-0.204-0.21-0.49-0.341-0.806-0.341s-0.602 0.13-0.806 0.34l-0 0c-0.202 0.197-0.327 0.471-0.327 0.775s0.125 0.578 0.327 0.774l0 0 8.177 7.949h-26.984c-0.006-0-0.013-0-0.020-0-0.607 0-1.101 0.489-1.108 1.094v0.001c0 0.001 0 0.002 0 0.003 0 0.621 0.504 1.125 1.125 1.125 0.001 0 0.002 0 0.004 0h26.984l-8.177 7.933c-0.202 0.2-0.327 0.477-0.327 0.783s0.125 0.583 0.327 0.783l0 0c0.208 0.203 0.492 0.328 0.806 0.328s0.598-0.125 0.806-0.328l10.105-9.836c0.208-0.193 0.338-0.469 0.338-0.775s-0.13-0.581-0.338-0.774l-0.001-0.001z"></path>
</symbol>
<symbol id=".iconyoutube" viewBox="0 0 32 32">
<title>youtube</title>
<path fill="#fcae26" style="fill: var(--color1, #fcae26)" d="M21.548 5.389c-0.204-0.21-0.49-0.341-0.806-0.341s-0.602 0.13-0.806 0.34l-0 0c-0.202 0.197-0.327 0.471-0.327 0.775s0.125 0.578 0.327 0.774l0 0 8.177 7.949h-26.984c-0.006-0-0.013-0-0.020-0-0.607 0-1.101 0.489-1.108 1.094v0.001c0 0.001 0 0.002 0 0.003 0 0.621 0.504 1.125 1.125 1.125 0.001 0 0.002 0 0.004 0h26.984l-8.177 7.933c-0.202 0.2-0.327 0.477-0.327 0.783s0.125 0.583 0.327 0.783l0 0c0.208 0.203 0.492 0.328 0.806 0.328s0.598-0.125 0.806-0.328l10.105-9.836c0.208-0.193 0.338-0.469 0.338-0.775s-0.13-0.581-0.338-0.774l-0.001-0.001z"></path>
</symbol>
</defs>
</svg>
