<svg aria-hidden="true" style="position: absolute; width: 0; height: 0; overflow: hidden;" version="1.1" xmlns="http://www.w3.org/2000/svg" xmlns:xlink="http://www.w3.org/1999/xlink">
<defs>
<symbol id="icoarrow" viewBox="0 0 32 32">
<title>arrow</title>
<path d="M22.708 7l-1.416 1.412 6.28 6.294h-27.572v2h27.572l-6.28 6.294 1.416 1.412 8.688-8.706z"></path>
</symbol>
<symbol id="icoearthglobe" viewBox="0 0 32 32">
<title>earthglobe</title>
<path d="M30.723 9.772c-1.687-3.933-4.554-6.794-8.52-8.486-1.982-0.845-4.042-1.277-6.211-1.277s-4.231 0.428-6.211 1.277c-3.933 1.687-6.83 4.546-8.521 8.486-0.847 1.974-1.26 4.042-1.26 6.211s0.413 4.255 1.26 6.229c1.69 3.94 4.587 6.816 8.521 8.503 1.98 0.85 4.042 1.277 6.211 1.277s4.229-0.432 6.211-1.277c3.966-1.692 6.833-4.57 8.52-8.503 0.85-1.98 1.277-4.059 1.277-6.229s-0.428-4.23-1.277-6.211zM10.672 2.983c-1.382 1.749-2.397 3.971-3.044 6.666h-4.181c1.54-2.992 4.129-5.389 7.226-6.666zM1.942 15.982c0-1.522 0.245-2.992 0.717-4.409h4.584c-0.227 1.487-0.333 2.957-0.333 4.409 0 1.435 0.105 2.887 0.333 4.374h-4.619c-0.455-1.417-0.682-2.887-0.682-4.374zM3.447 22.281h4.182c0.648 2.747 1.662 5.004 3.044 6.736-3.149-1.312-5.739-3.709-7.226-6.736zM15.011 29.892c-1.137-0.332-2.204-1.172-3.167-2.537s-1.697-3.062-2.204-5.074h5.371v7.611zM15.011 20.357h-5.809c-0.228-1.557-0.35-3.010-0.35-4.374 0-1.47 0.122-2.939 0.385-4.409h5.773v8.783h0zM15.011 9.649h-5.371c0.542-1.995 1.281-3.671 2.24-5.021 0.966-1.362 1.994-2.204 3.132-2.519v7.541zM28.553 9.649h-4.182c-0.647-2.695-1.662-4.917-3.044-6.666 3.097 1.277 5.686 3.674 7.226 6.666zM16.989 2.108c1.137 0.315 2.165 1.157 3.132 2.519 0.958 1.35 1.697 3.027 2.239 5.021h-5.371v-7.541zM16.989 11.574h5.773c0.263 1.47 0.385 2.939 0.385 4.409 0 1.365-0.122 2.817-0.35 4.374h-5.809v-8.783zM16.989 29.892v-7.611h5.371c-0.525 2.012-1.269 3.702-2.222 5.074-0.955 1.375-1.994 2.222-3.149 2.537zM21.328 29.017c1.382-1.732 2.397-3.989 3.044-6.736h4.182c-1.487 3.027-4.077 5.424-7.226 6.736zM29.376 20.357h-4.619c0.228-1.487 0.333-2.939 0.333-4.374 0-1.452-0.105-2.922-0.333-4.409h4.584c0.473 1.417 0.717 2.887 0.717 4.409-0 1.487-0.227 2.957-0.682 4.374z"></path>
</symbol>
<symbol id="icoeditdocument" viewBox="0 0 32 32">
<title>editdocument</title>
<path d="M2 28v-24c0-1.103 0.898-2 2-2h20c1.104 0 2 0.897 2 2v11.758l2-2v-9.758c0-2.209-1.791-4-4-4h-20c-2.209 0-4 1.791-4 4v24c0 2.209 1.791 4 4 4h11v-2h-11c-1.101 0-2-0.896-2-2zM22 6h-16v2h16v-2zM22 10h-16v2h16v-2zM22 14h-16v2h16v-2zM6 20h8v-2h-8v2zM31.414 18l-1.414-1.414c-0.391-0.391-0.902-0.586-1.414-0.586s-1.023 0.195-1.414 0.586l-8.586 8.586c-0.391 0.39-1.586 1.901-1.586 2.413l-1 4.415 4.414-1c0 0 2.023-1.195 2.414-1.586l8.586-8.586c0.781-0.781 0.781-2.048 0-2.828zM22.123 28.705c-0.113 0.108-0.505 0.372-0.983 0.677l-2.591-2.591c0.266-0.364 0.561-0.73 0.744-0.912l6.465-6.465 2.828 2.828-6.463 6.463z"></path>
</symbol>
<symbol id="icofacebook" viewBox="0 0 32 32">
<title>facebook</title>
<path fill="#3b5998" style="fill: var(--color1, #3b5998)" d="M32 16c0 8.837-7.163 16-16 16s-16-7.163-16-16c0-8.837 7.163-16 16-16s16 7.163 16 16z"></path>
<path fill="#fff" style="fill: var(--color2, #fff)" d="M20.022 16.626h-2.855v10.459h-4.326v-10.459h-2.057v-3.676h2.057v-2.379c0-1.701 0.808-4.365 4.364-4.365l3.204 0.013v3.568h-2.325c-0.381 0-0.918 0.191-0.918 1.002v2.163h3.233l-0.378 3.672z"></path>
</symbol>
<symbol id="icofour-black" viewBox="0 0 32 32">
<title>four-black</title>
<path d="M9.143 18.286h-4.571c-2.525 0-4.571 2.047-4.571 4.571v4.571c0 2.525 2.047 4.571 4.571 4.571h4.571c2.525 0 4.571-2.047 4.571-4.571v-4.571c0-2.525-2.047-4.571-4.571-4.571zM9.143 0h-4.571c-2.525 0-4.571 2.047-4.571 4.571v4.571c0 2.525 2.047 4.571 4.571 4.571h4.571c2.525 0 4.571-2.047 4.571-4.571v-4.571c0-2.525-2.047-4.571-4.571-4.571zM27.429 18.286h-4.571c-2.525 0-4.571 2.047-4.571 4.571v4.571c0 2.525 2.047 4.571 4.571 4.571h4.571c2.525-0 4.571-2.047 4.571-4.572v-4.571c0-2.525-2.047-4.571-4.571-4.571zM27.429 0h-4.571c-2.525 0-4.571 2.047-4.571 4.571v4.571c0 2.525 2.047 4.571 4.571 4.571h4.571c2.525 0 4.571-2.047 4.571-4.571v-4.571c0-2.525-2.047-4.571-4.571-4.571z"></path>
</symbol>
<symbol id="icon-icon" viewBox="0 0 32 32">
<title>icon-icon</title>
<path d="M30.512 43.939c-2.348-.676-4.696-1.019-6.98-1.019-3.527 0-6.47.806-8.752 1.793 2.2-8.054 7.485-21.951 18.013-23.516a2.501 2.501 0 002.04-1.799l2.301-8.23a2.5 2.5 0 00-2.068-3.15 17.477 17.477 0 00-2.354-.16c-12.637 0-25.152 13.19-30.433 32.076-3.1 11.08-4.009 27.738 3.627 38.223 4.273 5.867 10.507 9 18.529 9.313l.098.002c9.898 0 18.675-6.666 21.345-16.209a22.032 22.032 0 00-2.032-16.851c-2.875-5.105-7.61-8.826-13.334-10.473zM92.471 54.413c-2.875-5.106-7.61-8.827-13.334-10.474-2.348-.676-4.696-1.019-6.979-1.019a21.94 21.94 0 00-8.753 1.793c2.2-8.054 7.485-21.951 18.014-23.516a2.503 2.503 0 002.04-1.799l2.301-8.23a2.5 2.5 0 00-2.068-3.15 17.455 17.455 0 00-2.354-.16c-12.637 0-25.152 13.19-30.434 32.076-3.099 11.08-4.008 27.738 3.629 38.225 4.272 5.866 10.507 9 18.528 9.312l.099.002c9.897 0 18.675-6.666 21.345-16.209a22.045 22.045 0 00-2.034-16.851z"/></path>

</symbol>
<symbol id="icogps" viewBox="0 0 32 32">
<title>gps</title>
<path d="M16 10.182c-3.2 0-5.818 2.618-5.818 5.818s2.618 5.818 5.818 5.818c3.2 0 5.818-2.618 5.818-5.818s-2.618-5.818-5.818-5.818zM28.945 14.545c-0.727-6.109-5.527-10.909-11.491-11.491v-3.055h-2.909v3.055c-6.109 0.582-10.909 5.382-11.491 11.491h-3.055v2.909h3.055c0.727 6.109 5.527 10.909 11.491 11.491v3.055h2.909v-3.055c6.109-0.727 10.909-5.527 11.491-11.491h3.055v-2.909h-3.055zM16 26.182c-5.673 0-10.182-4.509-10.182-10.182s4.509-10.182 10.182-10.182 10.182 4.509 10.182 10.182-4.509 10.182-10.182 10.182z"></path>
</symbol>
<symbol id="icohandshake" viewBox="0 0 32 32">
<title>handshake</title>
<path d="M23.637 10.51c-0.035-0.070-0.083-0.134-0.142-0.189s-0.127-0.094-0.197-0.119l-3.682-1.323c-0.256-0.092-0.531-0.142-0.817-0.139s-0.559 0.058-0.814 0.155l-2.793 1.066c-0.197 0.075-0.392 0.162-0.584 0.26-0.064 0.033-0.127 0.069-0.19 0.105-0.211-0.114-0.431-0.215-0.661-0.3-0.733-0.274-1.483-0.366-2.209-0.304l-1.879 0.161c-0.082 0.007-0.164 0.032-0.241 0.078s-0.141 0.107-0.191 0.178l-4.232 6.024c-0.087 0.124-0.134 0.281-0.12 0.448s0.086 0.313 0.191 0.418l1.841 1.824c-0.101 0.185-0.165 0.392-0.18 0.614-0.027 0.399 0.104 0.784 0.368 1.085s0.628 0.48 1.028 0.507c0.021 0.001 0.043 0.001 0.065 0.002-0.164 0.529-0.030 1.13 0.397 1.534 0.255 0.242 0.582 0.382 0.93 0.405-0.224 0.555-0.103 1.217 0.355 1.65 0.279 0.265 0.644 0.41 1.029 0.41 0.401 0 0.774-0.157 1.057-0.439 0.105 0.678 0.668 1.219 1.381 1.265 0.033 0.002 0.066 0.004 0.099 0.004 0.182 0 0.357-0.034 0.519-0.095 0.265 0.177 0.581 0.274 0.917 0.26 0.413-0.017 0.784-0.2 1.061-0.485l-1.012-1.010c0.002-0.023 0.007-0.046 0.008-0.070 0.013-0.198-0.014-0.39-0.073-0.569l2.072 2.067c0.261 0.106 0.546 0.16 0.842 0.148 0.593-0.024 1.121-0.304 1.495-0.737l0.207-0.241c0.019-0.023 0.034-0.048 0.047-0.076l-3.19-3.181c-0.082-0.081-0.089-0.217-0.016-0.302s0.2-0.088 0.281-0.006l3.794 3.783c0.207 0.073 0.428 0.108 0.658 0.098 0.521-0.021 0.986-0.267 1.315-0.649l0.501-0.58c0.115-0.134 0.183-0.314 0.177-0.51l-3.329-3.319c-0.081-0.082-0.089-0.217-0.016-0.302s0.2-0.088 0.281-0.006l3.345 3.335c0.137 0.037 0.281 0.055 0.43 0.049 0.427-0.017 0.808-0.219 1.077-0.531l0.135-0.156c0.269-0.312 0.428-0.734 0.412-1.194s-0.203-0.867-0.494-1.157l-0.667-0.666 2.414-2.18c0.103-0.092 0.177-0.221 0.204-0.373s0.003-0.301-0.060-0.428l-3.14-6.295zM8.173 20.411c-0.226-0.015-0.433-0.117-0.583-0.288s-0.224-0.389-0.209-0.616c0.029-0.445 0.401-0.794 0.847-0.794 0.019 0 0.038 0 0.057 0.002 0.226 0.015 0.433 0.117 0.583 0.288s0.224 0.389 0.209 0.616c-0.031 0.464-0.434 0.823-0.904 0.792zM9.62 22.355c-0.218 0-0.425-0.082-0.584-0.232-0.336-0.318-0.354-0.853-0.042-1.192 0.016-0.017 0.348-0.367 0.507-0.535l0.084-0.089c0.162-0.171 0.381-0.266 0.617-0.266 0.218 0 0.426 0.083 0.584 0.233 0.165 0.156 0.259 0.367 0.266 0.594s-0.076 0.442-0.232 0.607l-0.236 0.25c-0.051 0.053-0.105 0.111-0.16 0.169-0.009 0.010-0.019 0.020-0.027 0.029-0.041 0.043-0.078 0.082-0.106 0.111-0.016 0.017-0.032 0.035-0.049 0.052-0.004 0.004-0.007 0.008-0.008 0.009-0.161 0.168-0.379 0.26-0.612 0.26zM11.517 24.151c-0.161 0.168-0.379 0.26-0.612 0.26-0.218 0-0.426-0.083-0.584-0.233-0.336-0.318-0.354-0.853-0.043-1.19 0.007-0.008 0.202-0.214 0.423-0.447 0-0 0-0 0-0l0.164-0.173c0.287-0.304 0.381-0.402 0.413-0.437 0.004-0.003 0.008-0.007 0.011-0.011l0.001-0c0.028-0.030 0.044-0.047 0.044-0.047 0.162-0.171 0.381-0.266 0.617-0.266 0.218 0 0.425 0.083 0.584 0.233 0.165 0.156 0.259 0.367 0.265 0.594s-0.076 0.443-0.233 0.608c-0.015 0.016-1.017 1.075-1.050 1.11zM14.289 24.447c-0.031 0.464-0.433 0.823-0.904 0.793-0.467-0.031-0.823-0.436-0.792-0.904 0.029-0.446 0.401-0.794 0.846-0.794 0.019 0 0.038 0.001 0.057 0.002 0.467 0.031 0.823 0.436 0.793 0.904zM23.774 19.343l-6.613-6.594 0.075-0.188c0.039-0.098 0.034-0.214-0.023-0.312s-0.151-0.154-0.251-0.159l-1.028-0.061-0.041 0.636c-0.001 0.013-0.107 1.461-0.845 2.768-0.757 1.342-1.759 1.805-1.912 1.834-0.171 0.033-0.35 0.065-0.499 0.065-0.102 0-0.181-0.014-0.248-0.045l-0.251-0.116c-0.105-0.049-0.186-0.138-0.228-0.253-0.041-0.11-0.041-0.231 0-0.341l2.515-5.52 0.428-0.282 3.333-1.271c0.199-0.076 0.407-0.115 0.618-0.117l0.018-0c0.205 0 0.408 0.036 0.603 0.106l3.682 1.323 3.14 6.295-2.472 2.232z"></path>
<path d="M27.352 6.489l-2.485 1.239c-0.357 0.179-0.647 0.494-0.784 0.903s-0.094 0.835 0.083 1.193l3.254 6.524c0.178 0.357 0.493 0.648 0.903 0.784 0.409 0.137 0.834 0.095 1.192-0.083l2.485-1.24-4.648-9.32zM29.509 15.813c-0.33 0-0.599-0.268-0.599-0.598s0.268-0.599 0.599-0.599c0.331 0 0.599 0.268 0.599 0.599s-0.268 0.598-0.599 0.598z"></path>
<path d="M8.9 8.47c-0.075-0.425-0.313-0.78-0.641-1.010l-2.273-1.596-5.987 8.522 2.272 1.596c0.327 0.23 0.742 0.335 1.167 0.261s0.779-0.314 1.009-0.641l4.191-5.966c0.23-0.327 0.335-0.742 0.261-1.167zM3.144 14.259c-0.049 0.327-0.354 0.553-0.681 0.503s-0.552-0.354-0.503-0.681c0.049-0.327 0.354-0.552 0.681-0.503s0.552 0.355 0.503 0.682z"></path>
</symbol>
<symbol id="icolightbulb" viewBox="0 0 32 32">
<title>lightbulb</title>
<path d="M20.129 24.461h-3.523v-5.127c1.015-0.31 1.793-1.274 1.793-2.414 0-1.39-1.134-2.52-2.523-2.52s-2.519 1.129-2.519 2.52c0 1.14 0.785 2.104 1.8 2.414v5.127h-3.541c-0.398 0-0.72 0.291-0.72 0.689s0.322 0.689 0.72 0.689h8.514c0.398 0 0.72-0.291 0.72-0.689s-0.322-0.689-0.72-0.689zM14.793 16.92c0-0.596 0.485-1.081 1.080-1.081s1.080 0.486 1.080 1.081c0 0.596-0.485 1.081-1.080 1.081s-1.080-0.486-1.080-1.081z"></path>
<path d="M19.397 27.433h-7.050c-0.398 0-0.72 0.326-0.72 0.724s0.322 0.726 0.72 0.726h7.050c0.398 0 0.72-0.328 0.72-0.726 0-0.396-0.322-0.724-0.72-0.724z"></path>
<path d="M19.003 30.55h-6.262c-0.398 0-0.72 0.327-0.72 0.725s0.322 0.725 0.72 0.725h6.262c0.398 0 0.72-0.327 0.72-0.725s-0.322-0.725-0.72-0.725z"></path>
<path d="M15.872 6.564c-4.876 0-8.842 3.966-8.842 8.841 0 3.598 2.163 6.695 5.255 8.074 1.081 0.51 1.85-0.709 0.845-1.204-2.727-1.092-4.661-3.758-4.661-6.87 0-4.080 3.32-7.402 7.402-7.402 4.080 0 7.401 3.322 7.401 7.402 0 3.102-1.921 5.761-4.634 6.86-0.98 0.393-0.492 1.779 0.83 1.209 3.085-1.381 5.243-4.474 5.243-8.069 0.003-4.875-3.964-8.841-8.839-8.841z"></path>
<path d="M15.809 5.157c0.423 0 0.797-0.343 0.797-0.766v-3.624c0-0.423-0.373-0.767-0.797-0.767-0.423 0-0.797 0.344-0.797 0.767v3.622c0 0.423 0.373 0.768 0.797 0.768z"></path>
<path d="M4.726 15.038h-3.624c-0.423 0-0.767 0.338-0.767 0.761s0.344 0.761 0.767 0.761h3.624c0.425 0 0.767-0.337 0.767-0.761 0-0.423-0.344-0.761-0.767-0.761z"></path>
<path d="M7.33 8.026c0.299 0.299 0.785 0.299 1.085 0 0.301-0.299 0.301-0.785 0-1.085l-2.562-2.562c-0.299-0.299-0.785-0.299-1.085 0s-0.299 0.785 0 1.085l2.562 2.562z"></path>
<path d="M30.898 15.038h-3.624c-0.425 0-0.767 0.338-0.767 0.761 0 0.425 0.343 0.761 0.767 0.761h3.624c0.423 0 0.767-0.338 0.767-0.761s-0.344-0.761-0.767-0.761z"></path>
<path d="M24.668 8.026l2.562-2.562c0.299-0.299 0.299-0.785 0-1.085-0.301-0.299-0.785-0.299-1.085 0l-2.562 2.562c-0.299 0.299-0.299 0.785 0 1.085s0.785 0.299 1.085 0z"></path>
</symbol>
<symbol id="icopencilcircle" viewBox="0 0 32 32">
<title>pencilcircle</title>
<path d="M20 17.718c-1.308 0.495-2.77 0.396-4-0.273-1.23 0.669-2.692 0.768-4 0.273v9.6c1.251 0.442 2.597 0.683 4 0.683s2.749-0.241 4-0.683v-9.6zM19.731 16.386l-3.731-6.396-3.731 6.396c1.090 0.494 2.361 0.393 3.361-0.274 0.224-0.149 0.516-0.149 0.74 0 1.001 0.667 2.272 0.768 3.361 0.274v0zM21.333 16.68v10.073c3.951-1.964 6.667-6.041 6.667-10.753 0-6.627-5.373-12-12-12s-12 5.373-12 12c0 4.712 2.715 8.789 6.667 10.753v-10.073c-0.002-0.105 0.020-0.211 0.070-0.312 0.007-0.015 0.015-0.029 0.024-0.043l4.663-7.995c0.257-0.441 0.894-0.441 1.152 0l4.663 7.995c0.008 0.014 0.016 0.028 0.024 0.043 0.050 0.1 0.073 0.207 0.070 0.312v0zM16 29.333c-7.364 0-13.333-5.97-13.333-13.333s5.97-13.333 13.333-13.333c7.364 0 13.333 5.97 13.333 13.333s-5.97 13.333-13.333 13.333z"></path>
</symbol>
<symbol id="icordf-resource" viewBox="0 0 32 32">
<title>rdf-resource</title>
<path d="M26.997 20.090v-8.18c2.837-0.475 5.003-2.937 5.003-5.91 0-3.313-2.688-6-6-6-3.316 0-6 2.687-6 6 0 0.609 0.092 1.196 0.262 1.75l-9.424 4.711c-1.091-1.489-2.849-2.461-4.838-2.461-3.314 0-6 2.687-6 6 0 3.312 2.686 6 6 6 1.99 0 3.748-0.973 4.839-2.464l9.423 4.712c-0.17 0.555-0.262 1.143-0.262 1.752 0 3.312 2.684 6 6 6 3.312 0 6-2.688 6-6 0-2.973-2.166-5.436-5.003-5.91zM24.999 20.091c-1.573 0.265-2.935 1.14-3.838 2.372l-9.422-4.712c0.169-0.554 0.261-1.142 0.261-1.751s-0.092-1.199-0.262-1.753l9.422-4.71c0.902 1.235 2.266 2.109 3.839 2.374v8.18z"></path>
</symbol>
<symbol id="icotelegram" viewBox="0 0 32 32">
<title>telegram</title>
<path fill="#039be5" style="fill: var(--color3, #039be5)" d="M32 16c0 8.837-7.163 16-16 16s-16-7.163-16-16c0-8.837 7.163-16 16-16s16 7.163 16 16z"></path>
<path fill="#fff" style="fill: var(--color2, #fff)" d="M7.321 15.653l15.427-5.948c0.716-0.259 1.341 0.175 1.109 1.257l0.001-0.001-2.627 12.375c-0.195 0.877-0.716 1.091-1.445 0.677l-4-2.948-1.929 1.859c-0.213 0.213-0.393 0.393-0.807 0.393l0.284-4.071 7.413-6.697c0.323-0.284-0.072-0.444-0.497-0.161l-9.161 5.768-3.949-1.232c-0.857-0.272-0.876-0.857 0.181-1.271z"></path>
</symbol>
<symbol id="icothefreeforty_targe" viewBox="0 0 32 32">
<title>thefreeforty_targe</title>
<path d="M24.533 13.547c-0.427 0.107-0.64 0.64-0.427 1.067 0.533 1.28 0.747 2.667 0.747 4.053 0 6.4-5.227 11.52-11.52 11.52s-11.52-5.12-11.52-11.52 5.12-11.52 11.52-11.52c1.173 0 2.453 0.213 3.627 0.533 0.427 0.107 0.853-0.107 0.96-0.533s-0.107-0.853-0.533-0.96c-1.28-0.427-2.667-0.64-4.053-0.64-7.253 0-13.12 5.867-13.12 13.12s5.867 13.12 13.12 13.12 13.12-5.867 13.12-13.12c0-1.6-0.32-3.2-0.853-4.693-0.107-0.32-0.64-0.533-1.067-0.427zM13.333 16c0.427 0 0.853-0.32 0.853-0.853s-0.32-0.853-0.853-0.853c-2.347 0-4.267 1.92-4.267 4.267s1.92 4.267 4.267 4.267 4.267-1.92 4.267-4.267c0-0.427-0.32-0.853-0.853-0.853s-0.747 0.533-0.747 0.96c0 1.493-1.173 2.667-2.667 2.667s-2.667-1.173-2.667-2.667c0-1.493 1.173-2.667 2.667-2.667zM17.28 11.84c0.213-0.427 0-0.853-0.427-1.067-1.067-0.533-2.347-0.747-3.52-0.747-4.8 0-8.747 3.84-8.747 8.64s3.947 8.747 8.747 8.747 8.747-3.947 8.747-8.747c0-1.28-0.213-2.453-0.747-3.52-0.213-0.427-0.64-0.64-1.067-0.427s-0.533 0.64-0.427 1.067c0.427 0.96 0.64 1.92 0.64 2.88 0 3.947-3.2 7.147-7.147 7.147s-7.147-3.2-7.147-7.147 3.2-7.147 7.147-7.147c1.067 0 2.027 0.213 2.88 0.64 0.427 0.213 0.853 0 1.067-0.32zM31.787 6.507c-0.107-0.32-0.32-0.533-0.64-0.533l-4.373-0.747-0.747-4.373c0-0.32-0.213-0.533-0.533-0.64s-0.64 0-0.853 0.213l-5.227 5.227c-0.213 0.213-0.32 0.427-0.213 0.747l0.853 4.48-6.72 6.72c0 0-0.107 0-0.107 0-0.64 0-1.173 0.533-1.173 1.173s0.533 1.173 1.173 1.173c0.64 0 1.173-0.533 1.173-1.173 0 0 0 0 0 0l6.827-6.827 4.373 0.853c0 0 0.107 0 0.107 0 0.213 0 0.427-0.107 0.533-0.213l5.227-5.227c0.32-0.213 0.427-0.533 0.32-0.853zM20.907 6.4l3.84-3.84 0.533 2.987-3.733 3.733-0.64-2.88zM25.6 11.093l-2.88-0.533 3.733-3.733 2.88 0.533-3.733 3.733z"></path>
</symbol>
<symbol id="icotwo-fingers-swipe-up-gesture-stroke-symbol-of-a-hand_icon-iconscom_57947" viewBox="0 0 32 32">
<title>two-fingers-swipe-up-gesture-stroke-symbol-of-a-hand_icon-iconscom_57947</title>
<path d="M26.354 12.571c-0.686 0-1.257 0.229-1.714 0.571v0c0-1.6-1.257-2.857-2.857-2.857-0.686 0-1.257 0.229-1.714 0.571v-8c0-1.6-1.257-2.857-2.857-2.857-1.257 0-2.286 0.8-2.629 1.829-0.457-0.457-1.143-0.686-1.943-0.686-1.6 0-2.857 1.257-2.857 2.857v10.171c-2.286-2.057-4.8-3.657-6.4-2.057-2.286 2.286 2.514 6.743 6.171 13.486 2.629 4.686 6.286 6.4 9.943 6.4 5.371 0 9.714-4.343 9.714-9.714v-6.857c0-1.6-1.257-2.857-2.857-2.857zM28.068 17.943v4.343c0 4.686-3.886 8.571-8.571 8.571-0.229 0-0.343 0-0.571 0v-10.286l3.657 3.657 0.914-0.914-5.143-5.029-5.143 5.143 0.914 0.914 3.657-3.657v10.171c-3.314-0.571-5.371-2.629-7.2-5.6-4.343-7.657-7.543-11.086-6.4-12.343 1.257-1.257 4.343 1.486 6.743 4v-12.914c0-0.914 0.8-1.714 1.714-1.714s1.714 0.8 1.714 1.714v12h1.143v-13.143c0-0.914 0.8-1.714 1.714-1.714s1.714 0.8 1.714 1.714v12h1.143v-1.714c0-0.914 0.8-1.714 1.714-1.714s1.714 0.8 1.714 1.714v2.857h1.143v-0.571c0-0.914 0.8-1.714 1.714-1.714s1.714 0.8 1.714 1.714v2.514z"></path>
</symbol>
<symbol id="icoyoutube" viewBox="0 0 32 32">
<title>youtube</title>
<path fill="#d42428" style="fill: var(--color4, #d42428)" d="M32 16c0 8.837-7.163 16-16 16s-16-7.163-16-16c0-8.837 7.163-16 16-16s16 7.163 16 16z"></path>
<path fill="#cc202d" style="fill: var(--color5, #cc202d)" d="M27.313 4.685c6.248 6.249 6.249 16.38 0 22.629s-16.38 6.249-22.629 0l22.629-22.629z"></path>
<path fill="#ba202e" style="fill: var(--color6, #ba202e)" d="M31.678 19.205l-7.919-7.919-9.34 1.063-5.649 8.746 10.556 10.556c6.206-1.313 11.086-6.222 12.352-12.447z"></path>
<path fill="#fff" style="fill: var(--color2, #fff)" d="M24.373 12.912c0-1.341-1.087-2.428-2.427-2.428h-11.387c-1.34 0-2.427 1.087-2.427 2.428v6.512c0 1.341 1.087 2.428 2.427 2.428h11.387c1.341 0 2.427-1.087 2.427-2.428v-6.512h0zM14.628 18.916v-6.116l4.638 3.058-4.638 3.058z"></path>
</symbol>
</defs>
</svg>
